<svg xmlns="http://www.w3.org/2000/svg" xmlns:xlink="http://www.w3.org/1999/xlink" width="974" zoomAndPan="magnify" viewBox="0 0 730.5 728.249982" height="971" preserveAspectRatio="xMidYMid meet" version="1.0"><defs><g/></defs><g fill="#000000" fill-opacity="1"><g transform="translate(109.037486, 370.338361)"><g><path d="M 92.609375 -109.96875 C 105.585938 -106.988281 116.148438 -103.304688 124.296875 -98.921875 C 132.453125 -94.535156 138.722656 -89.710938 143.109375 -84.453125 C 147.492188 -79.191406 150.519531 -73.882812 152.1875 -68.53125 C 153.851562 -63.1875 154.6875 -58.054688 154.6875 -53.140625 C 154.6875 -42.441406 151.789062 -32.796875 146 -24.203125 C 140.21875 -15.609375 131.890625 -8.8125 121.015625 -3.8125 C 110.140625 1.1875 96.984375 3.6875 81.546875 3.6875 C 65.585938 3.6875 51.554688 1.273438 39.453125 -3.546875 C 27.359375 -8.367188 17.710938 -14.203125 10.515625 -21.046875 L 34.71875 -59.453125 C 33.84375 -50.335938 34.941406 -42.140625 38.015625 -34.859375 C 41.085938 -27.578125 45.425781 -21.394531 51.03125 -16.3125 C 56.644531 -11.226562 63.046875 -7.328125 70.234375 -4.609375 C 77.429688 -1.890625 84.710938 -0.53125 92.078125 -0.53125 C 99.796875 -0.53125 106.066406 -1.753906 110.890625 -4.203125 C 115.710938 -6.660156 119.4375 -9.773438 122.0625 -13.546875 C 124.695312 -17.316406 126.539062 -21.304688 127.59375 -25.515625 C 128.644531 -29.722656 129.171875 -33.582031 129.171875 -37.09375 C 129.171875 -44.988281 127.285156 -51.171875 123.515625 -55.640625 C 119.742188 -60.109375 114.21875 -63.742188 106.9375 -66.546875 C 99.664062 -69.359375 90.765625 -71.992188 80.234375 -74.453125 C 63.222656 -78.484375 50.023438 -83.832031 40.640625 -90.5 C 31.265625 -97.164062 24.691406 -104.441406 20.921875 -112.328125 C 17.148438 -120.222656 15.265625 -127.941406 15.265625 -135.484375 C 15.265625 -146.359375 18.15625 -155.695312 23.9375 -163.5 C 29.726562 -171.300781 37.835938 -177.304688 48.265625 -181.515625 C 58.703125 -185.734375 71.023438 -187.84375 85.234375 -187.84375 C 100.492188 -187.84375 113.601562 -185.515625 124.5625 -180.859375 C 135.53125 -176.210938 144.519531 -170.554688 151.53125 -163.890625 L 126.546875 -125.484375 C 127.765625 -134.429688 127.015625 -142.5 124.296875 -149.6875 C 121.585938 -156.882812 117.597656 -163.023438 112.328125 -168.109375 C 107.066406 -173.191406 100.972656 -177.09375 94.046875 -179.8125 C 87.117188 -182.53125 80.0625 -183.890625 72.875 -183.890625 C 64.632812 -183.890625 58.1875 -182.265625 53.53125 -179.015625 C 48.882812 -175.773438 45.679688 -171.695312 43.921875 -166.78125 C 42.171875 -161.875 41.296875 -156.96875 41.296875 -152.0625 C 41.296875 -142.9375 43.664062 -135.65625 48.40625 -130.21875 C 53.144531 -124.78125 59.414062 -120.570312 67.21875 -117.59375 C 75.019531 -114.613281 83.484375 -112.070312 92.609375 -109.96875 Z M 92.609375 -109.96875 "/></g></g></g><g fill="#000000" fill-opacity="1"><g transform="translate(175.046989, 484.466625)"><g><path d="M 92.609375 -109.96875 C 105.585938 -106.988281 116.148438 -103.304688 124.296875 -98.921875 C 132.453125 -94.535156 138.722656 -89.710938 143.109375 -84.453125 C 147.492188 -79.191406 150.519531 -73.882812 152.1875 -68.53125 C 153.851562 -63.1875 154.6875 -58.054688 154.6875 -53.140625 C 154.6875 -42.441406 151.789062 -32.796875 146 -24.203125 C 140.21875 -15.609375 131.890625 -8.8125 121.015625 -3.8125 C 110.140625 1.1875 96.984375 3.6875 81.546875 3.6875 C 65.585938 3.6875 51.554688 1.273438 39.453125 -3.546875 C 27.359375 -8.367188 17.710938 -14.203125 10.515625 -21.046875 L 34.71875 -59.453125 C 33.84375 -50.335938 34.941406 -42.140625 38.015625 -34.859375 C 41.085938 -27.578125 45.425781 -21.394531 51.03125 -16.3125 C 56.644531 -11.226562 63.046875 -7.328125 70.234375 -4.609375 C 77.429688 -1.890625 84.710938 -0.53125 92.078125 -0.53125 C 99.796875 -0.53125 106.066406 -1.753906 110.890625 -4.203125 C 115.710938 -6.660156 119.4375 -9.773438 122.0625 -13.546875 C 124.695312 -17.316406 126.539062 -21.304688 127.59375 -25.515625 C 128.644531 -29.722656 129.171875 -33.582031 129.171875 -37.09375 C 129.171875 -44.988281 127.285156 -51.171875 123.515625 -55.640625 C 119.742188 -60.109375 114.21875 -63.742188 106.9375 -66.546875 C 99.664062 -69.359375 90.765625 -71.992188 80.234375 -74.453125 C 63.222656 -78.484375 50.023438 -83.832031 40.640625 -90.5 C 31.265625 -97.164062 24.691406 -104.441406 20.921875 -112.328125 C 17.148438 -120.222656 15.265625 -127.941406 15.265625 -135.484375 C 15.265625 -146.359375 18.15625 -155.695312 23.9375 -163.5 C 29.726562 -171.300781 37.835938 -177.304688 48.265625 -181.515625 C 58.703125 -185.734375 71.023438 -187.84375 85.234375 -187.84375 C 100.492188 -187.84375 113.601562 -185.515625 124.5625 -180.859375 C 135.53125 -176.210938 144.519531 -170.554688 151.53125 -163.890625 L 126.546875 -125.484375 C 127.765625 -134.429688 127.015625 -142.5 124.296875 -149.6875 C 121.585938 -156.882812 117.597656 -163.023438 112.328125 -168.109375 C 107.066406 -173.191406 100.972656 -177.09375 94.046875 -179.8125 C 87.117188 -182.53125 80.0625 -183.890625 72.875 -183.890625 C 64.632812 -183.890625 58.1875 -182.265625 53.53125 -179.015625 C 48.882812 -175.773438 45.679688 -171.695312 43.921875 -166.78125 C 42.171875 -161.875 41.296875 -156.96875 41.296875 -152.0625 C 41.296875 -142.9375 43.664062 -135.65625 48.40625 -130.21875 C 53.144531 -124.78125 59.414062 -120.570312 67.21875 -117.59375 C 75.019531 -114.613281 83.484375 -112.070312 92.609375 -109.96875 Z M 92.609375 -109.96875 "/></g></g></g><g fill="#000000" fill-opacity="1"><g transform="translate(232.249096, 578.406778)"><g><path d="M 171.71875 -26.953125 C 166.53125 -18.703125 158.507812 -11.578125 147.65625 -5.578125 C 136.8125 0.410156 122.972656 3.40625 106.140625 3.40625 C 92.535156 3.40625 79.941406 1.21875 68.359375 -3.15625 C 56.785156 -7.53125 46.707031 -13.644531 38.125 -21.5 C 29.550781 -29.351562 22.875 -38.660156 18.09375 -49.421875 C 13.3125 -60.191406 10.921875 -71.890625 10.921875 -84.515625 C 10.921875 -99.085938 13.835938 -111.921875 19.671875 -123.015625 C 25.503906 -134.109375 33.359375 -143.378906 43.234375 -150.828125 C 53.109375 -158.273438 64.117188 -163.898438 76.265625 -167.703125 C 88.410156 -171.503906 100.71875 -173.40625 113.1875 -173.40625 C 128.882812 -173.40625 141.789062 -170.851562 151.90625 -165.75 C 162.03125 -160.65625 169.847656 -154.707031 175.359375 -147.90625 L 140.140625 -100.546875 L 139.40625 -100.796875 C 142.644531 -109.210938 144.101562 -117.425781 143.78125 -125.4375 C 143.457031 -133.457031 141.554688 -140.703125 138.078125 -147.171875 C 134.597656 -153.648438 129.617188 -158.789062 123.140625 -162.59375 C 116.660156 -166.40625 108.804688 -168.3125 99.578125 -168.3125 C 89.703125 -168.3125 80.796875 -165.84375 72.859375 -160.90625 C 64.929688 -155.96875 58.660156 -148.519531 54.046875 -138.5625 C 49.429688 -128.601562 47.125 -116.015625 47.125 -100.796875 C 47.125 -88.484375 48.941406 -76.78125 52.578125 -65.6875 C 56.222656 -54.601562 61.363281 -44.8125 68 -36.3125 C 74.644531 -27.8125 82.582031 -21.128906 91.8125 -16.265625 C 101.039062 -11.410156 111.320312 -8.984375 122.65625 -8.984375 C 131.5625 -8.984375 140.382812 -10.5625 149.125 -13.71875 C 157.863281 -16.875 164.828125 -21.691406 170.015625 -28.171875 Z M 171.71875 -26.953125 "/></g></g></g></svg>